<?xml version="1.0" encoding="utf-8"?>
<!-- Generator: Adobe Illustrator 16.0.0, SVG Export Plug-In . SVG Version: 6.00 Build 0)  -->
<!DOCTYPE svg PUBLIC "-//W3C//DTD SVG 1.1//EN" "http://www.w3.org/Graphics/SVG/1.1/DTD/svg11.dtd">
<svg version="1.1" id="Layer_1" xmlns="http://www.w3.org/2000/svg" xmlns:xlink="http://www.w3.org/1999/xlink" x="0px" y="0px"
	 width="1920.366px" height="671.092px" viewBox="0 0 1920.366 671.092" enable-background="new 0 0 1920.366 671.092"
	 xml:space="preserve">
<g>
	<polygon fill="#F47821" points="1691.472,0 1691.472,95.871 1670.381,95.871 	"/>
	<polygon fill="#161C34" points="306.909,357.344 328,357.344 328,453.215 	"/>
	<polygon fill="#8FD3D2" points="46.149,174.534 25.059,174.534 25.059,78.663 	"/>
	<polygon fill="#8FD3D2" points="172.149,114.534 151.059,114.534 151.059,18.663 	"/>
	<polygon fill="#F47821" points="183.347,206.994 183.347,364.183 148.766,364.183 	"/>
	<polygon fill="#161C34" points="9,418.183 9,260.994 43.581,260.994 	"/>
	<polygon fill="#161C34" points="1848.424,446.931 1848.424,349.06 1869.515,349.06 	"/>
	<polygon fill="#161C34" points="1722.146,345.041 1722.146,249.17 1743.237,249.17 	"/>
	<polygon fill="#8FD3D2" points="1856.517,204.183 1856.517,46.994 1891.098,46.994 	"/>
	<polygon fill="#161C34" points="1383.287,302.994 1417.868,302.994 1417.868,460.183 	"/>
	<polygon fill="#F47821" points="1008,326.701 1008,416.183 988.313,416.183 	"/>
	<polygon fill="#8FD3D2" points="1249.544,460.183 1214.963,460.183 1214.963,302.994 	"/>
	<polygon fill="#161C34" points="190.183,572.809 169.092,572.809 169.092,476.938 	"/>
	<polygon fill="#F47821" points="613.609,321.002 613.609,416.873 592.517,416.873 	"/>
	<polygon fill="#161C34" points="805.598,464.041 805.598,368.17 826.688,368.17 	"/>
	<polygon fill="#8FD3D2" points="47.149,611.534 26.059,611.534 26.059,515.663 	"/>
	<polygon fill="#8FD3D2" points="441.833,553.183 441.833,395.994 476.415,395.994 	"/>
	<polygon fill="#8FD3D2" points="1704.03,521.03 1682.938,521.03 1682.938,425.159 	"/>
	<polygon fill="#8FD3D2" points="1896.841,473.994 1896.841,631.183 1862.26,631.183 	"/>
	<polygon fill="#F47821" points="1530.656,445.16 1530.656,541.031 1509.564,541.031 	"/>
	<polygon fill="#161C34" points="1920.366,668.93 1920,804.217 0,804.217 0,670.186 957.366,459.595 	"/>
</g>
</svg>
