<?xml version="1.0" encoding="utf-8"?>
<!-- Generator: Adobe Illustrator 16.0.0, SVG Export Plug-In . SVG Version: 6.00 Build 0)  -->
<!DOCTYPE svg PUBLIC "-//W3C//DTD SVG 1.1//EN" "http://www.w3.org/Graphics/SVG/1.1/DTD/svg11.dtd">
<svg version="1.1" id="Layer_1" xmlns="http://www.w3.org/2000/svg" xmlns:xlink="http://www.w3.org/1999/xlink" x="0px" y="0px"
	 width="1887.841px" height="631.183px" viewBox="0 0 1887.841 631.183" enable-background="new 0 0 1887.841 631.183"
	 xml:space="preserve">
<g>
	<polygon fill="#F47821" points="1682.472,0 1682.472,95.871 1661.381,95.871 	"/>
	<polygon fill="#161C34" points="297.909,357.344 319,357.344 319,453.215 	"/>
	<polygon fill="#8FD3D2" points="37.149,174.534 16.059,174.534 16.059,78.663 	"/>
	<polygon fill="#8FD3D2" points="163.149,114.534 142.059,114.534 142.059,18.663 	"/>
	<polygon fill="#F47821" points="174.347,206.994 174.347,364.183 139.766,364.183 	"/>
	<polygon fill="#161C34" points="0,418.183 0,260.994 34.581,260.994 	"/>
	<polygon fill="#161C34" points="1839.424,446.93 1839.424,349.059 1860.515,349.059 	"/>
	<polygon fill="#161C34" points="1713.146,345.041 1713.146,249.17 1734.237,249.17 	"/>
	<polygon fill="#8FD3D2" points="1847.517,204.183 1847.517,46.994 1882.098,46.994 	"/>
	<polygon fill="#161C34" points="1374.287,302.994 1408.868,302.994 1408.868,460.183 	"/>
	<polygon fill="#F47821" points="999,326.701 999,416.183 979.313,416.183 	"/>
	<polygon fill="#8FD3D2" points="1240.544,460.183 1205.963,460.183 1205.963,302.994 	"/>
	<polygon fill="#161C34" points="181.183,572.809 160.092,572.809 160.092,476.938 	"/>
	<polygon fill="#F47821" points="604.609,321.002 604.609,416.873 583.517,416.873 	"/>
	<polygon fill="#161C34" points="796.598,464.041 796.598,368.17 817.688,368.17 	"/>
	<polygon fill="#8FD3D2" points="38.149,611.534 17.059,611.534 17.059,515.663 	"/>
	<polygon fill="#8FD3D2" points="432.833,553.183 432.833,395.994 467.415,395.994 	"/>
	<polygon fill="#8FD3D2" points="1695.03,521.03 1673.938,521.03 1673.938,425.159 	"/>
	<polygon fill="#8FD3D2" points="1887.841,473.994 1887.841,631.183 1853.26,631.183 	"/>
	<polygon fill="#F47821" points="1521.656,445.16 1521.656,541.03 1500.564,541.03 	"/>
</g>
</svg>
