<?xml version="1.0" encoding="utf-8"?>
<!-- Generator: Adobe Illustrator 16.0.0, SVG Export Plug-In . SVG Version: 6.00 Build 0)  -->
<!DOCTYPE svg PUBLIC "-//W3C//DTD SVG 1.1//EN" "http://www.w3.org/Graphics/SVG/1.1/DTD/svg11.dtd">
<svg version="1.1" id="Layer_1" xmlns="http://www.w3.org/2000/svg" xmlns:xlink="http://www.w3.org/1999/xlink" x="0px" y="0px"
	 width="92.019px" height="83.134px" viewBox="0 0 92.019 83.134" enable-background="new 0 0 92.019 83.134" xml:space="preserve">
<g>
	<polygon fill="#F47821" points="44.768,83.134 44.768,45.565 20.744,45.565 0,83.134 	"/>
	<polygon fill="#161C34" points="92.019,83.134 71.274,45.565 47.251,45.565 47.251,83.134 	"/>
	<polygon fill="#8FD3D2" points="70.526,43.377 22.13,43.377 46.149,0 	"/>
	<path fill="#FFFFFF" d="M62.897,76.195c-1.621,0-3.127-0.295-4.518-0.885s-2.591-1.396-3.604-2.417
		c-1.01-1.021-1.801-2.229-2.369-3.618c-0.568-1.391-0.854-2.876-0.854-4.456v-0.063c0-1.58,0.285-3.061,0.854-4.439
		c0.568-1.38,1.359-2.592,2.369-3.635c1.013-1.043,2.224-1.864,3.635-2.465c1.41-0.6,2.971-0.9,4.677-0.9
		c1.032,0,1.976,0.084,2.828,0.253s1.627,0.4,2.321,0.695c0.697,0.295,1.339,0.653,1.929,1.075c0.59,0.421,1.138,0.884,1.644,1.39
		l-3.097,3.57c-0.864-0.779-1.744-1.39-2.64-1.832c-0.895-0.443-1.9-0.664-3.018-0.664c-0.927,0-1.785,0.179-2.574,0.537
		c-0.791,0.358-1.47,0.854-2.039,1.485c-0.568,0.631-1.01,1.364-1.328,2.196c-0.314,0.832-0.473,1.722-0.473,2.67v0.063
		c0,0.947,0.158,1.844,0.473,2.686c0.318,0.844,0.755,1.58,1.313,2.211c0.559,0.633,1.233,1.135,2.021,1.502
		c0.791,0.369,1.66,0.553,2.607,0.553c1.264,0,2.334-0.231,3.207-0.694c0.875-0.463,1.743-1.095,2.607-1.897l3.098,3.129
		c-0.57,0.612-1.158,1.158-1.77,1.644s-1.28,0.901-2.008,1.248c-0.726,0.348-1.521,0.612-2.385,0.79
		C64.94,76.105,63.974,76.195,62.897,76.195"/>
	<path fill="#FFFFFF" d="M20.167,53.235h8.627c1.727,0,3.313,0.279,4.756,0.837c1.442,0.558,2.686,1.333,3.728,2.323
		c1.043,0.99,1.849,2.154,2.418,3.49c0.569,1.34,0.853,2.787,0.853,4.346v0.063c0,1.56-0.284,3.013-0.853,4.36
		c-0.569,1.35-1.375,2.518-2.418,3.508c-1.042,0.99-2.286,1.77-3.728,2.339c-1.443,0.568-3.029,0.853-4.756,0.853h-8.627V53.235z
		 M28.793,70.961c0.99,0,1.896-0.158,2.717-0.474c0.822-0.315,1.522-0.769,2.102-1.358c0.579-0.59,1.032-1.285,1.359-2.086
		c0.326-0.801,0.489-1.695,0.489-2.686v-0.063c0-0.969-0.163-1.864-0.489-2.687c-0.327-0.821-0.78-1.527-1.359-2.117
		c-0.58-0.589-1.28-1.048-2.102-1.374c-0.821-0.326-1.727-0.49-2.717-0.49h-3.761v13.335H28.793z"/>
</g>
</svg>
