<?xml version="1.0" encoding="utf-8"?>
<!-- Generator: Adobe Illustrator 16.0.0, SVG Export Plug-In . SVG Version: 6.00 Build 0)  -->
<!DOCTYPE svg PUBLIC "-//W3C//DTD SVG 1.1//EN" "http://www.w3.org/Graphics/SVG/1.1/DTD/svg11.dtd">
<svg version="1.1" id="Layer_1" xmlns="http://www.w3.org/2000/svg" xmlns:xlink="http://www.w3.org/1999/xlink" x="0px" y="0px"
	 width="260.546px" height="104.737px" viewBox="0 0 260.546 104.737" enable-background="new 0 0 260.546 104.737"
	 xml:space="preserve">
<g>
	<path fill="#F47821" d="M13.611,73.119c-1.947,0-3.753-0.355-5.421-1.062c-1.669-0.708-3.109-1.675-4.322-2.9
		c-1.214-1.226-2.161-2.674-2.844-4.342C0.342,63.147,0,61.365,0,59.468v-0.074c0-1.896,0.342-3.672,1.024-5.327
		c0.683-1.655,1.63-3.11,2.844-4.36c1.213-1.251,2.666-2.238,4.359-2.958c1.694-0.72,3.565-1.081,5.612-1.081
		c1.238,0,2.369,0.102,3.393,0.304c1.024,0.203,1.953,0.48,2.787,0.835c0.834,0.353,1.605,0.783,2.312,1.288
		c0.708,0.506,1.365,1.062,1.972,1.668l-3.715,4.285c-1.037-0.936-2.092-1.67-3.166-2.199c-1.075-0.531-2.282-0.797-3.621-0.797
		c-1.113,0-2.142,0.215-3.09,0.645s-1.763,1.023-2.446,1.782c-0.682,0.758-1.213,1.637-1.592,2.635
		c-0.379,0.999-0.569,2.067-0.569,3.204v0.076c0,1.137,0.19,2.212,0.569,3.223c0.379,1.01,0.904,1.895,1.574,2.653
		c0.669,0.758,1.478,1.358,2.426,1.802c0.948,0.441,1.99,0.663,3.128,0.663c1.517,0,2.799-0.278,3.848-0.834
		s2.091-1.313,3.128-2.274l3.716,3.754c-0.683,0.732-1.391,1.389-2.123,1.971c-0.734,0.582-1.536,1.081-2.408,1.496
		c-0.872,0.419-1.827,0.734-2.863,0.949C16.063,73.011,14.9,73.119,13.611,73.119"/>
	<path fill="#AADBCD" d="M44.019,73.08c-3.564,0-6.37-0.984-8.417-2.956c-2.047-1.972-3.071-4.916-3.071-8.835V46.124h5.839v15.014
		c0,2.175,0.505,3.812,1.516,4.91s2.414,1.649,4.209,1.649s3.197-0.53,4.208-1.592c1.011-1.063,1.517-2.654,1.517-4.777V46.124
		h5.839V61.1c0,2.022-0.272,3.778-0.816,5.271c-0.543,1.49-1.32,2.736-2.331,3.734c-1.012,0.998-2.237,1.743-3.678,2.236
		C47.392,72.833,45.787,73.08,44.019,73.08"/>
	<polygon fill="#161C34" points="65.402,46.123 71.241,46.123 71.241,67.393 84.472,67.393 84.472,72.664 65.402,72.664 	"/>
	<polygon fill="#F47821" points="92.662,46.123 98.501,46.123 98.501,67.393 111.732,67.393 111.732,72.664 92.662,72.664 	"/>
	<polygon fill="#AADBCD" points="126.026,46.123 126.026,72.664 120.187,72.664 	"/>
	<polygon fill="#161C34" points="136.452,46.123 142.746,46.123 149.723,57.346 156.699,46.123 162.992,46.123 162.992,72.664 
		157.229,72.664 157.229,55.336 149.76,66.673 149.608,66.673 142.215,55.451 142.215,72.664 136.452,72.664 	"/>
	<path fill="#F47821" d="M186.044,73.119c-2.047,0-3.931-0.36-5.649-1.08c-1.719-0.722-3.203-1.694-4.454-2.92
		s-2.225-2.666-2.919-4.322c-0.696-1.655-1.043-3.432-1.043-5.327v-0.075c0-1.896,0.353-3.672,1.061-5.327s1.688-3.11,2.939-4.36
		c1.25-1.251,2.741-2.237,4.474-2.958c1.729-0.721,3.621-1.081,5.668-1.081s3.93,0.36,5.649,1.081
		c1.718,0.72,3.203,1.694,4.454,2.92c1.251,1.226,2.225,2.666,2.921,4.32c0.694,1.657,1.041,3.432,1.041,5.328v0.076
		c0,1.895-0.354,3.672-1.061,5.326c-0.708,1.656-1.688,3.109-2.939,4.361c-1.251,1.25-2.742,2.235-4.474,2.957
		C189.981,72.758,188.092,73.119,186.044,73.119 M186.12,67.735c1.162,0,2.237-0.215,3.223-0.645
		c0.985-0.431,1.825-1.023,2.521-1.782c0.694-0.758,1.237-1.637,1.631-2.635c0.391-0.998,0.587-2.066,0.587-3.204v-0.075
		c0-1.138-0.196-2.212-0.587-3.223c-0.394-1.012-0.949-1.896-1.669-2.654s-1.573-1.359-2.561-1.802
		c-0.984-0.441-2.059-0.663-3.222-0.663c-1.188,0-2.269,0.215-3.241,0.645c-0.974,0.43-1.808,1.023-2.503,1.782
		c-0.694,0.759-1.237,1.636-1.63,2.636c-0.392,0.998-0.588,2.065-0.588,3.203v0.076c0,1.137,0.196,2.212,0.588,3.223
		c0.393,1.01,0.948,1.895,1.668,2.653s1.567,1.358,2.54,1.802C183.851,67.513,184.932,67.735,186.12,67.735"/>
	<path fill="#AADBCD" d="M209.171,46.123h12.133c3.361,0,5.939,0.898,7.735,2.693c1.516,1.516,2.275,3.538,2.275,6.066v0.076
		c0,2.148-0.525,3.898-1.574,5.25c-1.051,1.353-2.421,2.346-4.113,2.977l6.483,9.479h-6.825l-5.688-8.492h-0.076h-4.512v8.492
		h-5.839V46.123z M220.925,59.013c1.44,0,2.546-0.34,3.317-1.022s1.157-1.593,1.157-2.729v-0.076c0-1.264-0.405-2.211-1.215-2.844
		c-0.808-0.631-1.933-0.947-3.374-0.947h-5.801v7.619H220.925z"/>
	<polygon fill="#161C34" points="240.375,46.123 260.355,46.123 260.355,51.318 246.138,51.318 246.138,56.701 258.648,56.701 
		258.648,61.896 246.138,61.896 246.138,67.469 260.546,67.469 260.546,72.664 240.375,72.664 	"/>
	<path fill="#AADBCD" d="M60.074,0.189h10.351c2.072,0,3.975,0.335,5.706,1.005c1.731,0.67,3.223,1.599,4.474,2.786
		c1.251,1.189,2.218,2.585,2.9,4.19c0.683,1.606,1.024,3.343,1.024,5.213v0.076c0,1.871-0.341,3.615-1.024,5.232
		c-0.682,1.618-1.649,3.021-2.9,4.208c-1.251,1.189-2.743,2.124-4.474,2.807c-1.731,0.682-3.634,1.023-5.706,1.023H60.074V0.189z
		 M70.425,21.459c1.188,0,2.275-0.189,3.26-0.569c0.987-0.379,1.826-0.922,2.522-1.63c0.695-0.707,1.238-1.541,1.63-2.503
		c0.392-0.96,0.588-2.034,0.588-3.222v-0.076c0-1.162-0.196-2.237-0.588-3.223c-0.392-0.985-0.935-1.832-1.63-2.54
		c-0.696-0.707-1.535-1.257-2.522-1.649c-0.985-0.392-2.072-0.588-3.26-0.588h-4.512v16H70.425z"/>
	<path fill="#F47821" d="M102.615,0h5.384l11.374,26.729h-6.105l-2.426-5.952H99.619l-2.426,5.952H91.24L102.615,0z M108.757,15.621
		l-3.526-8.607L99.57,20.873L108.757,15.621z"/>
	<polygon fill="#161C34" points="123.525,0.189 129.97,0.189 136.909,18.881 143.847,0.189 150.141,0.189 139.411,26.918 
		134.255,26.918 	"/>
	<polygon fill="#F47821" points="159.751,0.189 165.59,0.189 165.59,26.729 	"/>
	<path fill="#AADBCD" d="M176.745,0.189h10.351c2.072,0,3.976,0.335,5.706,1.005c1.731,0.67,3.224,1.599,4.475,2.786
		c1.251,1.189,2.218,2.585,2.899,4.19c0.684,1.606,1.024,3.343,1.024,5.213v0.076c0,1.871-0.341,3.615-1.024,5.232
		c-0.682,1.618-1.648,3.021-2.899,4.208c-1.251,1.189-2.743,2.124-4.475,2.807c-1.73,0.682-3.634,1.023-5.706,1.023h-10.351V0.189z
		 M187.096,21.459c1.188,0,2.275-0.189,3.26-0.569c0.987-0.379,1.826-0.922,2.522-1.63c0.695-0.707,1.238-1.541,1.63-2.503
		c0.393-0.96,0.588-2.034,0.588-3.222v-0.076c0-1.162-0.195-2.237-0.588-3.223c-0.392-0.985-0.935-1.832-1.63-2.54
		c-0.696-0.707-1.535-1.257-2.522-1.649c-0.984-0.392-2.071-0.588-3.26-0.588h-4.512v16H187.096z"/>
	<path fill="#161C34" d="M72.001,96.751h3.207c0.471,0,0.892,0.066,1.262,0.197c0.369,0.131,0.683,0.316,0.941,0.556
		c0.259,0.239,0.457,0.524,0.595,0.858c0.138,0.332,0.207,0.7,0.207,1.104v0.023c0,0.455-0.082,0.855-0.246,1.199
		c-0.165,0.344-0.391,0.631-0.679,0.863c-0.287,0.232-0.624,0.404-1.009,0.521c-0.385,0.115-0.798,0.174-1.239,0.174h-1.312v2.354
		h-1.727V96.751z M75.096,100.71c0.434,0,0.769-0.113,1.009-0.342c0.24-0.228,0.359-0.51,0.359-0.847V99.5
		c0-0.389-0.126-0.684-0.376-0.885c-0.25-0.203-0.592-0.304-1.026-0.304h-1.334v2.399H75.096z"/>
	<polygon fill="#161C34" points="81.734,96.751 83.461,96.751 83.461,99.859 86.646,99.859 86.646,96.751 88.373,96.751 
		88.373,104.602 86.646,104.602 86.646,101.451 83.461,101.451 83.461,104.602 81.734,104.602 	"/>
	<path fill="#161C34" d="M96.313,104.737c-0.606,0-1.163-0.106-1.671-0.319c-0.509-0.213-0.947-0.5-1.318-0.863
		c-0.37-0.363-0.658-0.789-0.863-1.279c-0.206-0.489-0.309-1.014-0.309-1.575v-0.022c0-0.561,0.105-1.086,0.314-1.576
		c0.209-0.488,0.5-0.918,0.869-1.289c0.371-0.369,0.811-0.662,1.323-0.874c0.513-0.214,1.072-0.32,1.677-0.32
		s1.163,0.106,1.671,0.32c0.508,0.212,0.948,0.501,1.318,0.862c0.37,0.363,0.657,0.789,0.863,1.279
		c0.205,0.489,0.308,1.016,0.308,1.575v0.022c0,0.561-0.104,1.086-0.314,1.576c-0.209,0.489-0.498,0.918-0.869,1.289
		c-0.37,0.37-0.811,0.662-1.323,0.875C97.477,104.63,96.918,104.737,96.313,104.737 M96.334,103.144c0.344,0,0.662-0.063,0.953-0.19
		c0.292-0.127,0.54-0.303,0.746-0.526c0.206-0.226,0.366-0.484,0.483-0.78c0.115-0.296,0.173-0.611,0.173-0.947v-0.022
		c0-0.336-0.058-0.654-0.173-0.953c-0.117-0.299-0.281-0.561-0.494-0.785c-0.214-0.225-0.466-0.401-0.757-0.532
		c-0.292-0.131-0.61-0.196-0.953-0.196c-0.351,0-0.672,0.063-0.959,0.19c-0.288,0.128-0.534,0.303-0.74,0.526
		c-0.206,0.226-0.367,0.484-0.482,0.779c-0.116,0.297-0.175,0.612-0.175,0.948v0.022c0,0.336,0.059,0.654,0.175,0.953
		c0.115,0.299,0.28,0.561,0.493,0.785c0.213,0.225,0.464,0.401,0.751,0.532C95.664,103.08,95.982,103.144,96.334,103.144"/>
	<polygon fill="#161C34" points="106.102,98.345 103.714,98.345 103.714,96.751 110.217,96.751 110.217,98.345 107.829,98.345 
		107.829,104.602 106.102,104.602 	"/>
	<path fill="#161C34" d="M117.596,104.737c-0.606,0-1.163-0.106-1.671-0.319s-0.947-0.5-1.318-0.863
		c-0.369-0.363-0.658-0.789-0.863-1.279c-0.206-0.489-0.308-1.014-0.308-1.575v-0.022c0-0.561,0.105-1.086,0.314-1.576
		c0.208-0.488,0.499-0.918,0.868-1.289c0.371-0.369,0.811-0.662,1.324-0.874c0.512-0.214,1.071-0.32,1.676-0.32
		c0.606,0,1.163,0.106,1.671,0.32c0.509,0.212,0.948,0.501,1.318,0.862c0.369,0.363,0.658,0.789,0.863,1.279
		c0.206,0.489,0.309,1.016,0.309,1.575v0.022c0,0.561-0.105,1.086-0.314,1.576c-0.21,0.489-0.499,0.918-0.869,1.289
		c-0.37,0.37-0.811,0.662-1.324,0.875C118.76,104.63,118.202,104.737,117.596,104.737 M117.618,103.144
		c0.344,0,0.662-0.063,0.953-0.19c0.292-0.127,0.54-0.303,0.746-0.526c0.206-0.226,0.367-0.484,0.483-0.78
		c0.115-0.296,0.173-0.611,0.173-0.947v-0.022c0-0.336-0.058-0.654-0.173-0.953c-0.116-0.299-0.28-0.561-0.494-0.785
		c-0.213-0.225-0.466-0.401-0.756-0.532c-0.293-0.131-0.61-0.196-0.954-0.196c-0.352,0-0.671,0.063-0.959,0.19
		c-0.288,0.128-0.534,0.303-0.74,0.526c-0.206,0.226-0.366,0.484-0.482,0.779c-0.116,0.297-0.174,0.612-0.174,0.948v0.022
		c0,0.336,0.058,0.654,0.174,0.953c0.116,0.299,0.28,0.561,0.494,0.785c0.212,0.225,0.463,0.401,0.751,0.532
		C116.947,103.08,117.267,103.144,117.618,103.144"/>
	<path fill="#161C34" d="M129.336,104.736c-0.612,0-1.171-0.1-1.676-0.303c-0.505-0.201-0.938-0.481-1.301-0.84
		c-0.362-0.359-0.644-0.785-0.847-1.279c-0.201-0.493-0.302-1.031-0.302-1.614v-0.022c0-0.561,0.103-1.086,0.308-1.576
		c0.206-0.488,0.492-0.918,0.858-1.289c0.366-0.369,0.8-0.662,1.301-0.875s1.05-0.319,1.648-0.319c0.352,0,0.671,0.024,0.959,0.073
		c0.286,0.049,0.555,0.117,0.802,0.207c0.246,0.09,0.479,0.203,0.695,0.336c0.216,0.136,0.427,0.289,0.628,0.461l-1.089,1.312
		c-0.148-0.127-0.299-0.239-0.448-0.336s-0.304-0.18-0.465-0.247c-0.161-0.066-0.334-0.119-0.521-0.156
		c-0.187-0.037-0.392-0.057-0.617-0.057c-0.314,0-0.607,0.066-0.88,0.197c-0.273,0.13-0.512,0.307-0.717,0.527
		c-0.207,0.222-0.367,0.48-0.483,0.776c-0.116,0.295-0.174,0.612-0.174,0.949v0.022c0,0.359,0.058,0.691,0.174,0.994
		c0.116,0.305,0.28,0.567,0.493,0.793c0.214,0.225,0.464,0.398,0.752,0.522c0.287,0.124,0.607,0.185,0.958,0.185
		c0.644,0,1.186-0.158,1.625-0.474v-1.129h-1.738v-1.492h3.41v3.409c-0.403,0.344-0.885,0.638-1.441,0.881
		C130.691,104.615,130.054,104.736,129.336,104.736"/>
	<path fill="#161C34" d="M136.592,96.751h3.589c0.994,0,1.757,0.267,2.287,0.797c0.448,0.449,0.673,1.047,0.673,1.794v0.022
		c0,0.637-0.155,1.153-0.465,1.553c-0.312,0.4-0.717,0.695-1.217,0.881l1.917,2.804h-2.019l-1.682-2.512h-0.023h-1.334v2.512h-1.727
		V96.751z M140.067,100.565c0.427,0,0.753-0.101,0.982-0.303c0.228-0.202,0.342-0.472,0.342-0.808v-0.022
		c0-0.373-0.12-0.653-0.359-0.84c-0.239-0.188-0.571-0.281-0.998-0.281h-1.716v2.254H140.067z"/>
	<path fill="#161C34" d="M158.044,96.751h3.207c0.471,0,0.891,0.066,1.262,0.197c0.37,0.131,0.684,0.316,0.94,0.556
		c0.26,0.239,0.457,0.524,0.596,0.858c0.138,0.332,0.208,0.7,0.208,1.104v0.023c0,0.455-0.083,0.855-0.247,1.199
		c-0.165,0.344-0.392,0.631-0.68,0.863c-0.287,0.232-0.623,0.404-1.009,0.521c-0.385,0.115-0.798,0.174-1.238,0.174h-1.313v2.354
		h-1.727V96.751z M161.139,100.71c0.434,0,0.77-0.113,1.009-0.342c0.239-0.228,0.359-0.51,0.359-0.847V99.5
		c0-0.389-0.125-0.684-0.376-0.885c-0.25-0.203-0.592-0.304-1.026-0.304h-1.334v2.399H161.139z"/>
	<polygon fill="#161C34" points="167.777,96.751 169.504,96.751 169.504,99.859 172.688,99.859 172.688,96.751 174.416,96.751 
		174.416,104.602 172.688,104.602 172.688,101.451 169.504,101.451 169.504,104.602 167.777,104.602 	"/>
	<polygon fill="#161C34" points="180.751,101.507 177.735,96.751 179.753,96.751 181.626,99.904 183.532,96.751 185.495,96.751 
		182.479,101.474 182.479,104.602 180.751,104.602 	"/>
	<path fill="#161C34" d="M149.651,96.7h1.591l3.362,7.899h-1.806l-0.717-1.758h-3.316l-0.718,1.758h-1.76L149.651,96.7z
		 M151.466,101.316l-1.042-2.543l-1.674,4.096L151.466,101.316z"/>
</g>
</svg>
