<?xml version="1.0" encoding="utf-8"?>
<!-- Generator: Adobe Illustrator 16.0.0, SVG Export Plug-In . SVG Version: 6.00 Build 0)  -->
<!DOCTYPE svg PUBLIC "-//W3C//DTD SVG 1.1//EN" "http://www.w3.org/Graphics/SVG/1.1/DTD/svg11.dtd">
<svg version="1.1" id="Layer_1" xmlns="http://www.w3.org/2000/svg" xmlns:xlink="http://www.w3.org/1999/xlink" x="0px" y="0px"
	 width="331.572px" height="187.795px" viewBox="0 0 331.572 187.795" enable-background="new 0 0 331.572 187.795"
	 xml:space="preserve">
<g>
	<rect fill="#161C34" width="331.572" height="187.795"/>
	<rect x="5.804" y="5.454" fill="#FFFFFF" width="319.837" height="176.669"/>
	<path fill="#F47821" d="M50.511,119.087c-1.947,0-3.753-0.354-5.421-1.062c-1.669-0.708-3.109-1.674-4.322-2.9
		c-1.214-1.227-2.161-2.674-2.844-4.342c-0.682-1.668-1.024-3.45-1.024-5.346v-0.075c0-1.896,0.342-3.671,1.024-5.327
		c0.683-1.656,1.63-3.109,2.844-4.361c1.213-1.25,2.666-2.237,4.359-2.957c1.694-0.72,3.565-1.081,5.612-1.081
		c1.238,0,2.369,0.102,3.393,0.304c1.024,0.203,1.953,0.48,2.787,0.835c0.834,0.353,1.605,0.783,2.312,1.288
		c0.708,0.506,1.365,1.062,1.972,1.669l-3.715,4.283c-1.037-0.935-2.092-1.668-3.166-2.198c-1.075-0.531-2.282-0.798-3.621-0.798
		c-1.113,0-2.142,0.216-3.09,0.646c-0.948,0.431-1.763,1.024-2.446,1.782c-0.682,0.758-1.213,1.637-1.592,2.635
		c-0.379,0.999-0.569,2.066-0.569,3.204v0.076c0,1.137,0.19,2.212,0.569,3.223s0.904,1.896,1.574,2.653
		c0.669,0.758,1.478,1.359,2.426,1.802c0.948,0.442,1.99,0.663,3.128,0.663c1.517,0,2.799-0.277,3.848-0.834
		s2.091-1.314,3.128-2.275l3.716,3.754c-0.683,0.733-1.391,1.39-2.123,1.972c-0.734,0.582-1.536,1.081-2.408,1.497
		c-0.872,0.418-1.827,0.734-2.863,0.947C52.963,118.979,51.8,119.087,50.511,119.087"/>
	<path fill="#AADBCD" d="M80.918,119.049c-3.564,0-6.37-0.985-8.417-2.957c-2.047-1.973-3.071-4.916-3.071-8.836V92.092h5.839
		v15.014c0,2.174,0.505,3.811,1.516,4.91s2.414,1.648,4.209,1.648s3.197-0.529,4.208-1.592c1.011-1.062,1.517-2.654,1.517-4.777
		V92.092h5.839v14.977c0,2.022-0.272,3.778-0.816,5.27c-0.543,1.492-1.32,2.736-2.331,3.734c-1.012,0.998-2.237,1.744-3.678,2.237
		C84.292,118.802,82.687,119.049,80.918,119.049"/>
	<polygon fill="#161C34" points="102.302,92.091 108.141,92.091 108.141,113.361 121.372,113.361 121.372,118.633 102.302,118.633 	
		"/>
	<polygon fill="#F47821" points="129.562,92.091 135.401,92.091 135.401,113.361 148.632,113.361 148.632,118.633 129.562,118.633 	
		"/>
	<polygon fill="#AADBCD" points="162.926,92.091 162.926,118.633 157.087,118.633 	"/>
	<polygon fill="#161C34" points="173.352,92.091 179.646,92.091 186.623,103.314 193.599,92.091 199.892,92.091 199.892,118.633 
		194.129,118.633 194.129,101.305 186.66,112.642 186.508,112.642 179.115,101.418 179.115,118.633 173.352,118.633 	"/>
	<path fill="#F47821" d="M222.944,119.088c-2.047,0-3.931-0.361-5.649-1.082s-3.203-1.693-4.454-2.92
		c-1.251-1.225-2.225-2.666-2.919-4.32c-0.696-1.656-1.043-3.432-1.043-5.328v-0.075c0-1.896,0.353-3.672,1.061-5.327
		c0.708-1.656,1.688-3.109,2.939-4.361c1.25-1.25,2.741-2.236,4.474-2.957c1.729-0.721,3.621-1.081,5.668-1.081
		s3.93,0.36,5.649,1.081c1.718,0.72,3.203,1.694,4.454,2.919c1.251,1.227,2.225,2.668,2.921,4.322
		c0.694,1.656,1.041,3.432,1.041,5.327v0.076c0,1.896-0.354,3.672-1.061,5.326c-0.708,1.657-1.688,3.11-2.939,4.36
		c-1.251,1.252-2.742,2.236-4.474,2.957C226.881,118.727,224.992,119.088,222.944,119.088 M223.02,113.703
		c1.162,0,2.237-0.215,3.223-0.645s1.825-1.023,2.521-1.782c0.694-0.758,1.237-1.636,1.631-2.635
		c0.391-0.998,0.587-2.066,0.587-3.204v-0.075c0-1.138-0.196-2.212-0.587-3.224c-0.394-1.01-0.949-1.896-1.669-2.653
		s-1.573-1.358-2.561-1.802c-0.984-0.441-2.059-0.663-3.222-0.663c-1.188,0-2.269,0.215-3.241,0.646
		c-0.974,0.43-1.808,1.022-2.503,1.781c-0.694,0.758-1.237,1.637-1.63,2.635c-0.392,1-0.588,2.066-0.588,3.204v0.076
		c0,1.136,0.196,2.212,0.588,3.222c0.393,1.012,0.948,1.896,1.668,2.654c0.72,0.758,1.567,1.359,2.54,1.801
		C220.75,113.481,221.832,113.703,223.02,113.703"/>
	<path fill="#AADBCD" d="M246.071,92.091h12.133c3.361,0,5.939,0.898,7.735,2.693c1.516,1.517,2.275,3.538,2.275,6.065v0.076
		c0,2.149-0.525,3.899-1.574,5.252c-1.051,1.352-2.421,2.344-4.113,2.976l6.483,9.479h-6.825l-5.688-8.494h-0.076h-4.512v8.494
		h-5.839V92.091z M257.825,104.982c1.44,0,2.546-0.342,3.317-1.023c0.771-0.683,1.157-1.593,1.157-2.73v-0.075
		c0-1.263-0.405-2.211-1.215-2.843c-0.808-0.633-1.933-0.948-3.374-0.948h-5.801v7.62H257.825z"/>
	<polygon fill="#161C34" points="277.275,92.091 297.255,92.091 297.255,97.285 283.038,97.285 283.038,102.67 295.548,102.67 
		295.548,107.863 283.038,107.863 283.038,113.438 297.446,113.438 297.446,118.633 277.275,118.633 	"/>
	<path fill="#AADBCD" d="M96.974,46.158h10.351c2.072,0,3.975,0.335,5.706,1.005c1.731,0.67,3.223,1.599,4.474,2.786
		c1.251,1.189,2.218,2.585,2.9,4.19c0.683,1.606,1.024,3.343,1.024,5.213v0.076c0,1.871-0.341,3.615-1.024,5.232
		c-0.682,1.618-1.649,3.021-2.9,4.208c-1.251,1.189-2.743,2.124-4.474,2.807c-1.731,0.682-3.634,1.023-5.706,1.023H96.974V46.158z
		 M107.325,67.427c1.188,0,2.275-0.189,3.26-0.569c0.987-0.379,1.826-0.922,2.522-1.63c0.695-0.707,1.238-1.541,1.63-2.503
		c0.392-0.96,0.588-2.034,0.588-3.222v-0.076c0-1.162-0.196-2.237-0.588-3.223c-0.392-0.985-0.935-1.832-1.63-2.54
		c-0.696-0.707-1.535-1.257-2.522-1.649c-0.985-0.392-2.072-0.588-3.26-0.588h-4.512v16H107.325z"/>
	<path fill="#F47821" d="M139.515,45.968h5.384l11.374,26.729h-6.105l-2.426-5.952h-11.223l-2.426,5.952h-5.953L139.515,45.968z
		 M145.657,61.589l-3.526-8.607l-5.661,13.859L145.657,61.589z"/>
	<polygon fill="#161C34" points="160.425,46.158 166.87,46.158 173.809,64.849 180.747,46.158 187.041,46.158 176.311,72.887 
		171.155,72.887 	"/>
	<polygon fill="#F47821" points="196.651,46.158 202.49,46.158 202.49,72.698 	"/>
	<path fill="#AADBCD" d="M213.645,46.158h10.351c2.072,0,3.976,0.335,5.706,1.005c1.731,0.67,3.224,1.599,4.475,2.786
		c1.251,1.189,2.218,2.585,2.899,4.19c0.684,1.606,1.024,3.343,1.024,5.213v0.076c0,1.871-0.341,3.615-1.024,5.232
		c-0.682,1.618-1.648,3.021-2.899,4.208c-1.251,1.189-2.743,2.124-4.475,2.807c-1.73,0.682-3.634,1.023-5.706,1.023h-10.351V46.158z
		 M223.996,67.427c1.188,0,2.275-0.189,3.26-0.569c0.987-0.379,1.826-0.922,2.522-1.63c0.695-0.707,1.238-1.541,1.63-2.503
		c0.393-0.96,0.588-2.034,0.588-3.222v-0.076c0-1.162-0.195-2.237-0.588-3.223c-0.392-0.985-0.935-1.832-1.63-2.54
		c-0.696-0.707-1.535-1.257-2.522-1.649c-0.984-0.392-2.071-0.588-3.26-0.588h-4.512v16H223.996z"/>
	<path fill="#161C34" d="M108.901,142.721h3.207c0.471,0,0.892,0.064,1.262,0.195c0.369,0.133,0.683,0.317,0.941,0.557
		c0.259,0.238,0.457,0.525,0.595,0.857s0.207,0.701,0.207,1.104v0.022c0,0.457-0.082,0.856-0.246,1.2
		c-0.165,0.343-0.391,0.632-0.679,0.863c-0.287,0.231-0.624,0.405-1.009,0.521c-0.385,0.116-0.798,0.174-1.239,0.174h-1.312v2.355
		h-1.727V142.721z M111.996,146.68c0.434,0,0.769-0.114,1.009-0.342c0.24-0.229,0.359-0.512,0.359-0.848v-0.021
		c0-0.389-0.126-0.684-0.376-0.887c-0.25-0.201-0.592-0.303-1.026-0.303h-1.334v2.4H111.996z"/>
	<polygon fill="#161C34" points="118.634,142.721 120.361,142.721 120.361,145.826 123.546,145.826 123.546,142.721 
		125.273,142.721 125.273,150.57 123.546,150.57 123.546,147.42 120.361,147.42 120.361,150.57 118.634,150.57 	"/>
	<path fill="#161C34" d="M133.212,150.705c-0.606,0-1.163-0.107-1.671-0.32c-0.509-0.212-0.947-0.5-1.318-0.863
		c-0.37-0.362-0.658-0.787-0.863-1.278c-0.206-0.489-0.309-1.015-0.309-1.575v-0.021c0-0.562,0.105-1.086,0.314-1.576
		c0.209-0.489,0.5-0.92,0.869-1.29c0.371-0.369,0.811-0.662,1.323-0.874c0.513-0.213,1.072-0.32,1.677-0.32s1.163,0.107,1.671,0.32
		c0.508,0.212,0.948,0.501,1.318,0.863c0.37,0.362,0.657,0.789,0.863,1.278c0.205,0.489,0.308,1.015,0.308,1.575v0.023
		c0,0.56-0.104,1.086-0.314,1.574c-0.209,0.49-0.498,0.92-0.869,1.289c-0.37,0.371-0.811,0.663-1.323,0.875
		C134.376,150.598,133.818,150.705,133.212,150.705 M133.234,149.113c0.344,0,0.662-0.063,0.953-0.191
		c0.292-0.127,0.54-0.303,0.746-0.527s0.366-0.483,0.483-0.779c0.115-0.295,0.173-0.611,0.173-0.947v-0.021
		c0-0.338-0.058-0.655-0.173-0.955c-0.117-0.297-0.281-0.56-0.494-0.784c-0.214-0.224-0.466-0.401-0.757-0.532
		c-0.292-0.131-0.61-0.197-0.953-0.197c-0.351,0-0.672,0.064-0.959,0.191c-0.288,0.128-0.534,0.303-0.74,0.527
		s-0.367,0.483-0.482,0.778c-0.116,0.296-0.175,0.612-0.175,0.948v0.023c0,0.336,0.059,0.653,0.175,0.953
		c0.115,0.299,0.28,0.56,0.493,0.785c0.213,0.223,0.464,0.4,0.751,0.531C132.563,149.048,132.882,149.113,133.234,149.113"/>
	<polygon fill="#161C34" points="143.002,144.313 140.614,144.313 140.614,142.721 147.117,142.721 147.117,144.313 
		144.729,144.313 144.729,150.57 143.002,150.57 	"/>
	<path fill="#161C34" d="M154.496,150.705c-0.606,0-1.163-0.107-1.671-0.32c-0.508-0.212-0.947-0.5-1.318-0.863
		c-0.369-0.362-0.658-0.787-0.863-1.278c-0.206-0.489-0.308-1.015-0.308-1.575v-0.021c0-0.562,0.105-1.086,0.314-1.576
		c0.208-0.489,0.499-0.92,0.868-1.29c0.371-0.369,0.811-0.662,1.324-0.874c0.512-0.213,1.071-0.32,1.676-0.32
		c0.606,0,1.163,0.107,1.671,0.32c0.509,0.212,0.948,0.501,1.318,0.863c0.369,0.362,0.658,0.789,0.863,1.278
		c0.206,0.489,0.309,1.015,0.309,1.575v0.023c0,0.56-0.105,1.086-0.314,1.574c-0.21,0.49-0.499,0.92-0.869,1.289
		c-0.37,0.371-0.811,0.663-1.324,0.875C155.66,150.598,155.102,150.705,154.496,150.705 M154.518,149.113
		c0.344,0,0.662-0.063,0.953-0.191c0.292-0.127,0.54-0.303,0.746-0.527s0.367-0.483,0.483-0.779
		c0.115-0.295,0.173-0.611,0.173-0.947v-0.021c0-0.338-0.058-0.655-0.173-0.955c-0.116-0.297-0.28-0.56-0.494-0.784
		c-0.213-0.224-0.466-0.401-0.756-0.532c-0.293-0.131-0.61-0.197-0.954-0.197c-0.352,0-0.671,0.064-0.959,0.191
		c-0.288,0.128-0.534,0.303-0.74,0.527c-0.206,0.225-0.366,0.483-0.482,0.778c-0.116,0.296-0.174,0.612-0.174,0.948v0.023
		c0,0.336,0.058,0.653,0.174,0.953c0.116,0.299,0.28,0.56,0.494,0.785c0.212,0.223,0.463,0.4,0.751,0.531
		C153.847,149.048,154.167,149.113,154.518,149.113"/>
	<path fill="#161C34" d="M166.236,150.705c-0.612,0-1.171-0.102-1.676-0.303c-0.505-0.203-0.938-0.482-1.301-0.842
		c-0.362-0.357-0.644-0.783-0.847-1.277c-0.201-0.494-0.302-1.032-0.302-1.615v-0.021c0-0.562,0.103-1.086,0.308-1.576
		c0.206-0.489,0.492-0.92,0.858-1.289c0.366-0.371,0.8-0.662,1.301-0.875s1.05-0.32,1.648-0.32c0.352,0,0.671,0.025,0.959,0.072
		c0.287,0.05,0.555,0.119,0.802,0.209c0.246,0.089,0.478,0.201,0.694,0.336s0.428,0.287,0.629,0.459l-1.088,1.313
		c-0.149-0.127-0.299-0.238-0.449-0.336c-0.148-0.097-0.305-0.18-0.465-0.247c-0.161-0.067-0.334-0.12-0.521-0.157
		c-0.187-0.037-0.392-0.056-0.617-0.056c-0.314,0-0.607,0.065-0.88,0.197c-0.273,0.13-0.512,0.307-0.717,0.528
		c-0.207,0.221-0.367,0.479-0.483,0.775c-0.116,0.295-0.174,0.612-0.174,0.949v0.021c0,0.36,0.058,0.692,0.174,0.996
		c0.116,0.303,0.28,0.566,0.493,0.791c0.214,0.225,0.464,0.399,0.752,0.523c0.287,0.124,0.607,0.186,0.958,0.186
		c0.644,0,1.186-0.158,1.626-0.475v-1.129h-1.739v-1.492h3.41v3.409c-0.403,0.344-0.884,0.638-1.441,0.881
		C167.592,150.583,166.954,150.705,166.236,150.705"/>
	<path fill="#161C34" d="M173.492,142.721h3.589c0.994,0,1.757,0.266,2.287,0.796c0.448,0.448,0.673,1.047,0.673,1.794v0.023
		c0,0.635-0.155,1.152-0.465,1.553c-0.312,0.4-0.717,0.693-1.217,0.88l1.917,2.804h-2.019l-1.682-2.512h-0.023h-1.334v2.512h-1.727
		V142.721z M176.967,146.533c0.427,0,0.753-0.101,0.982-0.303c0.228-0.202,0.342-0.471,0.342-0.807V145.4
		c0-0.373-0.12-0.654-0.359-0.84c-0.239-0.188-0.571-0.281-0.998-0.281h-1.716v2.254H176.967z"/>
	<path fill="#161C34" d="M194.944,142.721h3.207c0.471,0,0.891,0.064,1.262,0.195c0.37,0.133,0.684,0.317,0.94,0.557
		c0.26,0.238,0.457,0.525,0.596,0.857c0.138,0.332,0.208,0.701,0.208,1.104v0.022c0,0.457-0.083,0.856-0.247,1.2
		c-0.165,0.343-0.392,0.632-0.68,0.863c-0.287,0.231-0.623,0.405-1.009,0.521c-0.385,0.116-0.798,0.174-1.238,0.174h-1.313v2.355
		h-1.727V142.721z M198.039,146.68c0.434,0,0.77-0.114,1.009-0.342c0.239-0.229,0.359-0.512,0.359-0.848v-0.021
		c0-0.389-0.125-0.684-0.376-0.887c-0.25-0.201-0.592-0.303-1.026-0.303h-1.334v2.4H198.039z"/>
	<polygon fill="#161C34" points="204.677,142.721 206.404,142.721 206.404,145.826 209.588,145.826 209.588,142.721 
		211.316,142.721 211.316,150.57 209.588,150.57 209.588,147.42 206.404,147.42 206.404,150.57 204.677,150.57 	"/>
	<polygon fill="#161C34" points="217.651,147.475 214.635,142.721 216.653,142.721 218.526,145.871 220.432,142.721 
		222.395,142.721 219.378,147.442 219.378,150.57 217.651,150.57 	"/>
	<path fill="#161C34" d="M186.551,142.668h1.591l3.362,7.9h-1.806l-0.717-1.76h-3.316l-0.718,1.76h-1.76L186.551,142.668z
		 M188.366,147.285l-1.042-2.545l-1.674,4.097L188.366,147.285z"/>
</g>
</svg>
