<?xml version="1.0" encoding="utf-8"?>
<!-- Generator: Adobe Illustrator 16.0.0, SVG Export Plug-In . SVG Version: 6.00 Build 0)  -->
<!DOCTYPE svg PUBLIC "-//W3C//DTD SVG 1.1//EN" "http://www.w3.org/Graphics/SVG/1.1/DTD/svg11.dtd">
<svg version="1.1" id="Layer_1" xmlns="http://www.w3.org/2000/svg" xmlns:xlink="http://www.w3.org/1999/xlink" x="0px" y="0px"
	 width="109.681px" height="25.745px" viewBox="0 0 109.681 25.745" enable-background="new 0 0 109.681 25.745"
	 xml:space="preserve">
<g>
	<path fill="#FFFFFF" d="M109.672,8.971c-1.11,0.826-1.345,1.986-1.542,3.299c-0.96,6.352-8.034,9.617-13.462,6.427
		c1.306-0.377,2.717-0.785,4.129-1.191l-0.038-0.332c-1.255-0.292-2.262-0.889-2.778-2.209c0.361-0.032,0.678-0.06,1.216-0.107
		c-1.418-0.686-2.289-1.585-2.388-3.153c0.418,0.104,0.777,0.194,1.395,0.349c-1.346-1.335-1.711-2.663-1.027-4.168
		c1.007,0.728,1.937,1.576,3.018,2.13c1.082,0.554,2.315,0.814,3.606,1.246c0.025-0.557,0.031-0.851,0.053-1.144
		c0.162-2.232,2.551-3.77,4.487-2.676c1.102,0.623,1.947,0.631,2.955-0.014c0.039,0.078,0.077,0.156,0.115,0.233
		c-0.318,0.424-0.638,0.848-1.048,1.391c0.497-0.102,0.896-0.183,1.299-0.266C109.666,8.862,109.695,8.952,109.672,8.971"/>
	<path fill="#FFFFFF" d="M8.792,20.339c-1.387,0.012-2.777-0.013-4.16-0.101c-2.122-0.135-4.344-2.1-4.494-4.311
		c-0.198-2.895-0.147-5.813-0.067-8.715C0.109,5.85,0.76,5.325,1.855,5.318c1.097-0.006,1.719,0.619,1.906,1.949
		C3.84,7.832,3.878,8.403,3.95,9.131c1.663,0,3.25-0.008,4.837,0.002c1.314,0.007,1.94,0.644,1.992,2.002
		c0.041,1.052-0.631,1.731-1.898,1.77c-1.65,0.049-3.302,0.012-5.101,0.012c0,0.808-0.058,1.51,0.014,2.199
		c0.102,0.984,0.829,1.361,1.707,1.41c1.08,0.061,2.165,0.023,3.248,0.045c1.342,0.026,2.126,0.797,2.116,2.058
		C10.856,19.706,10.151,20.326,8.792,20.339"/>
	<path fill="#FFFFFF" d="M41.044,12.979h-2.708v7.942h-2.647v-8.023c-1.059-0.039-1.589-0.071-1.589-0.11V10.08
		c0-0.036,0.896-0.072,1.443-0.115c0.099-1.566-0.429-3.285,1.067-4.422c1.354-1.029,2.786-0.494,4.374-0.647v2.551
		c-0.529,0.159-1.536,0.017-2.08,0.451c-0.352,0.28-0.043,1.375-0.104,1.904h2.523C41.226,10.861,41.139,11.92,41.044,12.979"/>
	<path fill="#FFFFFF" d="M69.477,0c-6.971-0.024-12.921,5.924-12.9,12.896c0.019,6.988,5.983,12.908,12.946,12.85
		c6.961-0.059,12.818-5.96,12.8-12.896C82.303,5.898,76.429,0.022,69.477,0 M76.346,17.215c-0.013,1.694-1.104,2.774-2.806,2.801
		c-0.693,0.011-1.388,0.012-2.081,0.01c-0.694-0.002-1.389-0.006-2.082-0.006c-0.694,0-1.389,0.004-2.082,0.006
		s-1.387,0.001-2.081-0.01c-1.658-0.026-2.763-1.063-2.789-2.717c-0.044-2.809-0.041-5.618-0.001-8.427
		c0.024-1.705,1.126-2.736,2.859-2.747c2.74-0.019,5.482-0.021,8.224,0c1.761,0.013,2.831,1.098,2.841,2.864
		C76.363,11.731,76.366,14.474,76.346,17.215"/>
	<path fill="#FFFFFF" d="M72.976,11.682h1.979c0,1.99,0.063,3.944-0.054,5.888c-0.023,0.384-0.724,1.03-1.126,1.042
		c-2.941,0.086-5.887,0.088-8.827-0.016c-0.403-0.014-1.086-0.74-1.114-1.172c-0.124-1.879-0.053-3.772-0.053-5.722h1.995
		c-0.493,1.935-0.062,3.544,1.655,4.609c1.36,0.846,2.791,0.796,4.104-0.124C73.086,15.104,73.448,13.567,72.976,11.682"/>
	<path fill="#FFFFFF" d="M69.338,15.515c-1.346-0.025-2.411-1.139-2.387-2.496c0.023-1.348,1.141-2.422,2.487-2.395
		c1.332,0.027,2.443,1.179,2.41,2.496C71.816,14.448,70.673,15.539,69.338,15.515"/>
	<rect x="72.435" y="7.813" fill="#FFFFFF" width="2.229" height="2.205"/>
</g>
</svg>
